<svg width="53" height="84" viewBox="0 0 53 84" fill="none" xmlns="http://www.w3.org/2000/svg">
<path d="M26.2934 0C27.2872 2.25039 27.9778 4.1666 28.9421 5.94745C32.9973 13.5108 37.0231 21.0868 41.2594 28.5486C44.6619 34.5468 48.5571 40.2955 50.5237 47.0001C53.5851 57.5287 52.8187 67.3974 44.9651 75.8068C41.3255 79.6789 36.5833 82.3264 31.3879 83.3865C26.1924 84.4466 20.7978 83.8676 15.9427 81.7288C11.0557 79.5713 6.94371 75.9622 4.15972 71.3869C1.37573 66.8117 0.0532813 61.4898 0.370268 56.137C0.791371 49.2124 3.00217 42.9096 6.3752 36.9664C11.1631 28.5063 16.1069 20.1562 20.8064 11.658C22.8024 8.03287 24.3479 4.1666 26.2934 0ZM26.1839 11.125C23.9857 15.1605 21.9013 19.1621 19.6652 23.0622C17.4292 26.9623 14.9489 30.9048 12.6328 34.8556C11.3147 37.0976 10.043 39.3775 8.86392 41.6956C6.24045 46.852 4.65289 52.2707 4.75817 58.1336C4.91398 69.1106 12.9191 77.9133 24.1289 79.3684C34.1301 80.6713 44.2155 73.734 46.9695 63.6327C48.6161 57.5921 47.6222 51.7504 45.5673 46.0103C45.2356 45.0046 44.8215 44.0284 44.3292 43.0915C38.299 32.4487 32.2562 21.8228 26.1839 11.125Z" fill="#2603FD"/>
</svg>
