<svg width="29" height="24" viewBox="0 0 29 24" fill="none" xmlns="http://www.w3.org/2000/svg">
<path fill-rule="evenodd" clip-rule="evenodd" d="M5.72247 0H24.0631L28.8023 17.073C29.7721 20.567 27.0523 24 23.3142 24H5.68665C1.85087 24 -0.88313 20.3976 0.264097 16.855L5.72247 0ZM6.98736 1.66667L1.90729 17.3535C1.10771 19.8225 3.01323 22.3333 5.68665 22.3333H23.3142C25.9195 22.3333 27.8152 19.9406 27.1392 17.5054L22.7427 1.66667H22.2234C22.2409 4.59241 21.5052 6.89356 20.2861 8.51831C18.9418 10.31 17.0305 11.2414 15.052 11.2291C11.2071 11.2053 7.70197 7.74124 7.40804 1.66667H6.98736ZM9.13126 1.66667C9.41419 7.15164 12.4873 9.54655 15.0631 9.56252C16.4447 9.57108 17.8494 8.92954 18.8927 7.53898C19.8498 6.26344 20.5193 4.3273 20.5014 1.66667H9.13126Z" fill="black"/>
</svg>
