<svg width="184" height="52" viewBox="0 0 184 52" fill="none" xmlns="http://www.w3.org/2000/svg">
<path d="M3.56125 23H11.0493V15.672H21.5133V9.848H11.0493V7H22.3133V0.599998H3.56125V23ZM24.0613 23H43.3253V16.856H31.4213V14.424H42.3653V9.016H31.4213V6.744H43.1653V0.599998H24.0613V23ZM43.7105 23H51.7105L52.8625 19.992H60.7025L61.8865 23H70.0145L60.5745 0.439999H53.1505L43.7105 23ZM54.7505 14.68L56.7985 9.24L58.8465 14.68H54.7505ZM73.7893 23H81.2773V6.936H87.8693V0.599998H67.1973V6.936H73.7893V23ZM100.377 23.448C107.065 23.448 111.513 20.44 111.513 12.792V0.599998H103.897V13.016C103.897 15.736 102.457 16.824 100.441 16.824C98.4253 16.824 96.9853 15.64 96.9853 12.856V0.599998H89.3693V12.952C89.3693 20.376 93.6893 23.448 100.377 23.448ZM113.874 23H121.362V16.6H122.962L127.186 23H135.73L130.514 15.384C133.234 14.072 134.93 11.8 134.93 8.536V8.472C134.93 6.168 134.226 4.504 132.882 3.16C131.314 1.592 128.786 0.599998 124.818 0.599998H113.874V23ZM121.362 11.256V6.872H124.626C126.354 6.872 127.474 7.576 127.474 9.016V9.08C127.474 10.456 126.386 11.256 124.594 11.256H121.362ZM136.749 23H156.013V16.856H144.109V14.424H155.053V9.016H144.109V6.744H155.853V0.599998H136.749V23ZM158.03 23H166.35C175.406 23 179.95 18.296 179.95 11.672V11.608C179.95 4.984 175.502 0.599998 166.606 0.599998H158.03V23ZM166.766 7.128C170.19 7.128 172.398 8.536 172.398 11.768V11.832C172.398 15.064 170.19 16.472 166.766 16.472H165.518V7.128H166.766ZM0.670625 51H8.15863V44.92H10.5906C16.6386 44.92 20.7666 42.04 20.7666 36.632V36.568C20.7666 31.256 16.7026 28.6 10.7506 28.6H0.670625V51ZM8.15863 39.576V34.584H10.2066C12.1906 34.584 13.3746 35.416 13.3746 37.048V37.112C13.3746 38.712 12.0946 39.576 10.1746 39.576H8.15863ZM22.3581 51H29.8461V44.6H31.4461L35.6701 51H44.2141L38.9981 43.384C41.7181 42.072 43.4141 39.8 43.4141 36.536V36.472C43.4141 34.168 42.7101 32.504 41.3661 31.16C39.7981 29.592 37.2701 28.6 33.3021 28.6H22.3581V51ZM29.8461 39.256V34.872H33.1101C34.8381 34.872 35.9581 35.576 35.9581 37.016V37.08C35.9581 38.456 34.8701 39.256 33.0781 39.256H29.8461ZM56.9131 51.48C63.8251 51.48 69.1691 46.296 69.1691 39.8V39.736C69.1691 33.24 63.8891 28.12 56.9771 28.12C50.0651 28.12 44.7211 33.304 44.7211 39.8V39.864C44.7211 46.36 50.0011 51.48 56.9131 51.48ZM56.9771 44.856C54.0971 44.856 52.2731 42.456 52.2731 39.8V39.736C52.2731 37.112 54.0651 34.744 56.9131 34.744C59.7931 34.744 61.6171 37.144 61.6171 39.8V39.864C61.6171 42.488 59.8251 44.856 56.9771 44.856ZM71.2019 51H79.5219C88.5779 51 93.1219 46.296 93.1219 39.672V39.608C93.1219 32.984 88.6739 28.6 79.7779 28.6H71.2019V51ZM79.9379 35.128C83.3619 35.128 85.5699 36.536 85.5699 39.768V39.832C85.5699 43.064 83.3619 44.472 79.9379 44.472H78.6899V35.128H79.9379ZM105.987 51.448C112.675 51.448 117.123 48.44 117.123 40.792V28.6H109.507V41.016C109.507 43.736 108.067 44.824 106.051 44.824C104.035 44.824 102.595 43.64 102.595 40.856V28.6H94.9786V40.952C94.9786 48.376 99.2986 51.448 105.987 51.448ZM130.587 51.48C136.155 51.48 139.291 48.76 141.179 45.432L135.003 41.944C134.075 43.608 132.891 44.76 130.779 44.76C128.315 44.76 126.587 42.712 126.587 39.8V39.736C126.587 37.048 128.251 34.84 130.779 34.84C132.827 34.84 134.011 35.96 134.843 37.56L141.019 33.944C139.131 30.52 135.803 28.12 130.875 28.12C124.187 28.12 118.971 33.112 118.971 39.8V39.864C118.971 46.808 124.379 51.48 130.587 51.48ZM148.336 51H155.824V34.936H162.416V28.6H141.744V34.936H148.336V51ZM173.271 51.416C179.287 51.416 183.159 48.536 183.159 43.832V43.768C183.159 39.256 179.319 37.592 173.591 36.536C171.223 36.088 170.615 35.704 170.615 35.096V35.032C170.615 34.488 171.127 34.104 172.247 34.104C174.327 34.104 176.855 34.776 178.967 36.312L182.615 31.256C180.023 29.208 176.823 28.184 172.503 28.184C166.327 28.184 162.999 31.48 162.999 35.736V35.8C162.999 40.536 167.415 41.976 172.439 43C174.839 43.48 175.543 43.832 175.543 44.472V44.536C175.543 45.144 174.967 45.496 173.623 45.496C170.999 45.496 168.215 44.728 165.783 42.872L161.783 47.64C164.631 50.136 168.727 51.416 173.271 51.416Z" fill="black"/>
</svg>
