<svg width="197" height="56" viewBox="0 0 197 56" fill="none" xmlns="http://www.w3.org/2000/svg">
<path d="M0 0H197V56H0V0Z" fill="#FFDF05"/>
<path d="M53.2459 34.2C56.2659 34.2 58.3859 32.64 58.3859 29.86V29.82C58.3859 27.38 56.7859 26.36 53.9459 25.62C51.5259 25 50.9259 24.7 50.9259 23.78V23.74C50.9259 23.06 51.5459 22.52 52.7259 22.52C53.9059 22.52 55.1259 23.04 56.3659 23.9L57.9659 21.58C56.5459 20.44 54.8059 19.8 52.7659 19.8C49.9059 19.8 47.8659 21.48 47.8659 24.02V24.06C47.8659 26.84 49.6859 27.62 52.5059 28.34C54.8459 28.94 55.3259 29.34 55.3259 30.12V30.16C55.3259 30.98 54.5659 31.48 53.3059 31.48C51.7059 31.48 50.3859 30.82 49.1259 29.78L47.3059 31.96C48.9859 33.46 51.1259 34.2 53.2459 34.2ZM60.7389 34H63.7789V28.02C63.7789 26.58 64.5189 25.84 65.6789 25.84C66.8389 25.84 67.5189 26.58 67.5189 28.02V34H70.5589V27.06C70.5589 24.6 69.2189 23.08 66.9189 23.08C65.3789 23.08 64.4789 23.9 63.7789 24.8V19.4H60.7389V34ZM78.4598 34.24C81.7998 34.24 84.2798 31.74 84.2798 28.66V28.62C84.2798 25.54 81.8198 23.08 78.4998 23.08C75.1598 23.08 72.6798 25.58 72.6798 28.66V28.7C72.6798 31.78 75.1398 34.24 78.4598 34.24ZM78.4998 31.62C76.8198 31.62 75.6798 30.24 75.6798 28.66V28.62C75.6798 27.04 76.7198 25.7 78.4598 25.7C80.1398 25.7 81.2798 27.08 81.2798 28.66V28.7C81.2798 30.28 80.2398 31.62 78.4998 31.62ZM86.4811 37.2H89.5211V32.6C90.2411 33.46 91.2411 34.2 92.8611 34.2C95.4011 34.2 97.7411 32.24 97.7411 28.66V28.62C97.7411 25.04 95.3611 23.08 92.8611 23.08C91.2811 23.08 90.2611 23.82 89.5211 24.82V23.28H86.4811V37.2ZM92.0811 31.62C90.6611 31.62 89.4811 30.44 89.4811 28.66V28.62C89.4811 26.84 90.6611 25.66 92.0811 25.66C93.5011 25.66 94.7011 26.84 94.7011 28.62V28.66C94.7011 30.46 93.5011 31.62 92.0811 31.62ZM106.293 34H109.333V25.1L116.113 34H118.733V20H115.693V28.62L109.133 20H106.293V34ZM127.034 34.24C130.374 34.24 132.854 31.74 132.854 28.66V28.62C132.854 25.54 130.394 23.08 127.074 23.08C123.734 23.08 121.254 25.58 121.254 28.66V28.7C121.254 31.78 123.714 34.24 127.034 34.24ZM127.074 31.62C125.394 31.62 124.254 30.24 124.254 28.66V28.62C124.254 27.04 125.294 25.7 127.034 25.7C128.714 25.7 129.854 27.08 129.854 28.66V28.7C129.854 30.28 128.814 31.62 127.074 31.62ZM136.968 34.08H139.688L141.788 27.5L143.848 34.08H146.588L149.928 23.28H146.908L145.148 29.8L143.108 23.24H140.488L138.467 29.78L136.748 23.28H133.668L136.968 34.08Z" fill="black"/>
<path d="M0 0V-3H-3V0H0ZM197 0H200V-3H197V0ZM197 56V59H200V56H197ZM0 56H-3V59H0V56ZM0 3H197V-3H0V3ZM194 0V56H200V0H194ZM197 53H0V59H197V53ZM3 56V0H-3V56H3Z" fill="black"/>
</svg>
