<svg width="27" height="25" viewBox="0 0 27 25" fill="none" xmlns="http://www.w3.org/2000/svg">
<path d="M13.506 2.71621C13.6394 2.57791 13.7611 2.44567 13.8877 2.31948C14.6861 1.50313 15.6476 0.87518 16.7055 0.479204C17.1068 0.332386 17.5177 0.215324 17.9352 0.128915C18.998 -0.0783742 20.0926 -0.035232 21.1367 0.2551C22.3104 0.562386 23.3969 1.15038 24.3078 1.97121C25.2649 2.82162 26.0061 3.89923 26.467 5.11069C26.7211 5.77091 26.8862 6.46378 26.9577 7.17002C27.0645 8.32528 26.9687 9.49087 26.6751 10.6113C26.4331 11.5635 26.0822 12.4828 25.6298 13.35C25.0928 14.3782 24.4622 15.3517 23.7464 16.2573C22.8581 17.3858 21.8865 18.4421 20.8403 19.417C19.7874 20.4186 18.676 21.3531 17.5122 22.2153C16.3757 23.0511 15.2117 23.8476 14.0585 24.6602C13.9084 24.7612 13.7513 24.8621 13.5992 24.9631C13.5718 24.9869 13.537 25 13.5011 25C13.4651 25 13.4304 24.9869 13.4029 24.9631C11.8228 23.9263 10.2711 22.8482 8.7901 21.6681C7.63063 20.7549 6.52181 19.7755 5.46887 18.7346C4.40661 17.6932 3.43792 16.5553 2.57457 15.3347C1.88475 14.3607 1.30552 13.3087 0.848203 12.1992C0.504389 11.3594 0.259575 10.4803 0.118987 9.58066C-0.0723962 8.31275 -0.0478604 7.05696 0.302517 5.81531C0.642251 4.61022 1.25067 3.50329 2.0794 2.58256C2.90813 1.66182 3.93429 0.95267 5.07629 0.511508C5.79462 0.22142 6.55554 0.0586099 7.32676 0.0299885C7.77552 0.00840731 8.22521 0.0202128 8.67232 0.0653177C9.28983 0.141113 9.89499 0.299951 10.4723 0.537756C11.4724 0.957344 12.3827 1.57469 13.1517 2.35482C13.2096 2.41236 13.2655 2.47091 13.3224 2.52845L13.506 2.71621ZM13.506 5.59625C13.3293 5.33984 13.1644 5.10766 13.0064 4.87043C12.5477 4.15493 11.9765 3.5228 11.3163 2.99987C10.4887 2.3416 9.50699 1.91926 8.47014 1.77537C7.54872 1.65612 6.61292 1.76657 5.74171 2.0974C4.75929 2.45638 3.88462 3.07215 3.20368 3.88417C2.66017 4.52125 2.24724 5.26459 1.98963 6.06969C1.72507 6.89881 1.62789 7.77475 1.70403 8.64386C1.80217 9.90369 2.17709 11.0797 2.7159 12.2063C3.08897 12.9921 3.53464 13.7392 4.04675 14.4373C4.49494 15.0429 4.96048 15.6372 5.44335 16.22C5.76519 16.5976 6.10589 16.9578 6.46406 17.2991C7.11967 17.9371 7.7792 18.5701 8.45444 19.1838C8.86174 19.5533 9.30143 19.8844 9.73032 20.2296C9.97176 20.4245 10.2122 20.6213 10.4635 20.803C11.4223 21.4945 12.3861 22.1779 13.343 22.8714C13.3877 22.9134 13.446 22.9366 13.5065 22.9366C13.5669 22.9366 13.6252 22.9134 13.6699 22.8714C14.244 22.4616 14.826 22.0639 15.3992 21.652C16.2334 21.0524 17.0578 20.4406 17.842 19.7693C18.1796 19.4816 18.5202 19.1969 18.8509 18.9012C19.2249 18.567 19.5919 18.2248 19.959 17.8816C20.2083 17.6474 20.4595 17.4142 20.697 17.1679C20.9542 16.8984 21.1986 16.6157 21.4449 16.3351C21.6412 16.112 21.8375 15.8848 22.0269 15.6567C22.8198 14.7258 23.5109 13.7082 24.088 12.6222C24.7426 11.3684 25.2009 10.0511 25.3118 8.61862C25.4118 7.47761 25.2084 6.3301 24.7233 5.2988C24.2382 4.26751 23.4897 3.39123 22.5579 2.76365C21.7356 2.20175 20.7922 1.85519 19.8098 1.75418C18.6086 1.62743 17.3996 1.90212 16.362 2.53753C15.3609 3.12909 14.5954 3.96796 13.9535 4.94513C13.8073 5.16217 13.6561 5.36811 13.504 5.59625H13.506Z" fill="black"/>
</svg>
