<svg width="28" height="27" viewBox="0 0 28 27" fill="none" xmlns="http://www.w3.org/2000/svg">
<path d="M25.1157 9.85374C24.6961 8.54502 26.1115 6.27931 25.3261 5.19042C24.5408 4.10153 21.957 4.75076 20.8683 3.95497C19.7796 3.15919 19.6228 0.478732 18.3265 0.053728C17.0767 -0.355155 15.3855 1.70392 14.0007 1.70392C12.6159 1.70392 10.9233 -0.355155 9.67349 0.053728C8.37721 0.478732 8.21027 3.16212 7.13173 3.95497C6.05319 4.74783 3.46642 4.09127 2.67384 5.19042C1.88127 6.28956 3.3053 8.54502 2.88434 9.85374C2.47789 11.1156 0 12.1019 0 13.5C0 14.8981 2.47789 15.8844 2.88434 17.1462C3.3053 18.4549 1.88853 20.7207 2.67384 21.8095C3.45916 22.8984 6.04303 22.2492 7.13173 23.045C8.22044 23.8408 8.37721 26.5212 9.67349 26.9462C10.9233 27.3551 12.6144 25.2975 14.0007 25.2975C15.387 25.2975 17.0767 27.3493 18.328 26.9462C19.6228 26.5212 19.7897 23.8378 20.8683 23.045C21.9468 22.2521 24.5336 22.9087 25.3261 21.8095C26.1187 20.7104 24.6961 18.4549 25.1157 17.1462C25.5221 15.8844 28 14.8981 28 13.5C28 12.1019 25.5221 11.1185 25.1157 9.85374ZM25.6803 15.5693C25.1592 16.009 24.6207 16.475 24.4726 16.9367C24.3144 17.4291 24.4842 18.1428 24.6497 18.8331C24.866 19.7388 25.0852 20.6738 24.6352 21.3039C24.1852 21.9341 23.2199 22.0147 22.2937 22.0865C21.597 22.1393 20.877 22.195 20.4705 22.494C20.0641 22.7929 19.7999 23.4553 19.5371 24.106C19.1829 24.9854 18.8113 25.8837 18.0638 26.1299C17.338 26.3659 16.541 25.8676 15.763 25.3854C15.1562 25.0073 14.5276 24.6175 14.0007 24.6175C13.4738 24.6175 12.8394 25.0073 12.237 25.3854C11.5969 25.7826 10.9393 26.19 10.3253 26.19C10.1938 26.1906 10.063 26.1703 9.93768 26.1299C9.18429 25.8837 8.81703 24.9795 8.46284 24.106C8.2001 23.4583 7.92866 22.7871 7.52947 22.494C7.13028 22.2008 6.40302 22.1393 5.70625 22.0865C4.78158 22.0147 3.81916 21.94 3.36481 21.3039C2.91046 20.6679 3.13401 19.7388 3.3503 18.8331C3.51578 18.1428 3.68561 17.4291 3.52739 16.9367C3.38223 16.475 2.84079 16.0148 2.31966 15.5693C1.59386 14.9538 0.854997 14.3178 0.854997 13.5014C0.854997 12.6851 1.59967 12.0491 2.31966 11.4336C2.84079 10.9939 3.37932 10.5279 3.52739 10.0662C3.68561 9.57529 3.51578 8.86011 3.3503 8.16984C3.13401 7.26415 2.91481 6.32913 3.36481 5.69896C3.81481 5.06878 4.78158 4.98817 5.70625 4.91783C6.40302 4.8636 7.12447 4.80791 7.52947 4.50894C7.93447 4.20998 8.2001 3.54756 8.46284 2.89686C8.81703 2.01754 9.18865 1.11917 9.93768 0.871493C10.6635 0.635542 11.459 1.13383 12.237 1.61599C12.8452 1.99409 13.4738 2.38392 14.0007 2.38392C14.5276 2.38392 15.162 1.99409 15.763 1.61599C16.541 1.13383 17.3438 0.635542 18.0638 0.871493C18.8157 1.11917 19.1829 2.02194 19.5371 2.8954C19.7999 3.54316 20.0713 4.21438 20.4705 4.50748C20.8697 4.80059 21.597 4.86214 22.2937 4.91636C23.2199 4.98671 24.1808 5.06292 24.6352 5.69749C25.0895 6.33207 24.866 7.26268 24.6497 8.16838C24.4842 8.85864 24.3144 9.57236 24.4726 10.0648C24.6178 10.5264 25.1592 10.9866 25.6803 11.4321C26.4061 12.0476 27.1465 12.6837 27.1465 13.5C27.1465 14.3163 26.4018 14.9523 25.6803 15.5678V15.5693ZM25.4002 11.7692C24.8311 11.2841 24.2389 10.7829 24.0574 10.2025C23.8615 9.59287 24.0473 8.81614 24.2258 8.06579C24.4189 7.25828 24.6192 6.42293 24.2839 5.95836C23.9486 5.49378 23.0878 5.41904 22.2603 5.35602C21.5026 5.2974 20.7202 5.23731 20.2136 4.86507C19.707 4.49282 19.4196 3.77032 19.135 3.06686C18.8171 2.28573 18.4891 1.47822 17.9288 1.29357C17.4018 1.12063 16.6847 1.56616 15.9909 1.99556C15.3319 2.40444 14.6496 2.82798 14.0007 2.82798C13.3518 2.82798 12.6681 2.40444 12.0091 1.99556C11.4285 1.63064 10.8159 1.25547 10.3238 1.25547C10.2382 1.25537 10.1531 1.26821 10.0712 1.29357C9.51091 1.47822 9.18284 2.28573 8.86639 3.06686C8.57607 3.77032 8.28576 4.49868 7.78641 4.86507C7.28706 5.23145 6.49739 5.2974 5.73965 5.35602C4.91223 5.41904 4.05723 5.48499 3.71756 5.95836C3.37788 6.43172 3.58111 7.25828 3.77417 8.06579C3.95272 8.81614 4.13853 9.59287 3.94256 10.2025C3.75531 10.7887 3.16884 11.2841 2.60126 11.7692C1.95675 12.3202 1.29482 12.8889 1.29482 13.5014C1.29482 14.114 1.96111 14.6827 2.60126 15.2337C3.16884 15.7188 3.76256 16.22 3.94256 16.8018C4.13853 17.4115 3.95272 18.1868 3.77417 18.9371C3.58111 19.7446 3.38224 20.58 3.71756 21.0445C4.05288 21.5091 4.91223 21.5839 5.73965 21.6469C6.49739 21.7055 7.2798 21.7656 7.78641 22.1378C8.29302 22.5101 8.58043 23.2326 8.86639 23.936C9.18284 24.7172 9.51091 25.5247 10.0712 25.7093C10.5996 25.8823 11.3153 25.4367 12.0091 25.0073C12.6681 24.5985 13.3504 24.1749 14.0007 24.1749C14.651 24.1749 15.3319 24.5985 15.9909 25.0073C16.6847 25.4367 17.4004 25.8867 17.9288 25.7093C18.4891 25.5247 18.8171 24.7172 19.135 23.936C19.4254 23.2326 19.7157 22.5042 20.2136 22.1378C20.7115 21.7714 21.5041 21.7055 22.2603 21.6469C23.0878 21.5839 23.9428 21.5179 24.2839 21.0445C24.625 20.5712 24.4189 19.7446 24.2258 18.9371C24.0473 18.1868 23.8615 17.4115 24.0574 16.8018C24.2447 16.2156 24.8311 15.7188 25.3987 15.2337C26.0432 14.6827 26.7052 14.114 26.7052 13.5014C26.7052 12.8889 26.0447 12.3188 25.4002 11.7677V11.7692ZM8.85188 14.3016C8.75317 13.9382 9.5022 13.371 9.45139 12.9372C9.40494 12.5503 8.53978 12.1898 8.53978 11.7648C8.53978 11.3398 9.41075 10.9807 9.45139 10.5924C9.5022 10.1527 8.75317 9.58994 8.85188 9.22649C8.97381 8.78683 9.89704 8.72821 10.0756 8.42778C10.3412 7.98079 10.2962 7.07509 10.6388 7.07509C10.9814 7.07509 10.9291 7.98079 11.202 8.42778C11.3806 8.72821 12.3038 8.78097 12.4257 9.22649C12.5244 9.58994 11.7754 10.1586 11.8262 10.5909C11.8712 10.9793 12.7378 11.3383 12.7378 11.7633C12.7378 12.1883 11.8669 12.5489 11.8262 12.9358C11.7754 13.3754 12.5244 13.9367 12.4243 14.3002C12.3038 14.7471 11.3806 14.7984 11.202 15.0989C10.9364 15.5385 10.9799 16.4516 10.6388 16.4516C10.2977 16.4516 10.3398 15.5459 10.0756 15.0989C9.89849 14.7984 8.97527 14.7471 8.85333 14.3002L8.85188 14.3016ZM14.0936 21.1896H13.9789C11.5272 21.1266 10.2759 19.1511 10.1409 18.9268L11.1353 18.3201C11.1759 18.3875 12.1427 19.9703 14.008 20.0172C14.6191 20.0305 15.2229 19.8806 15.7583 19.5826C16.2936 19.2846 16.7414 18.8491 17.0564 18.3201L18.0507 18.9268C17.6385 19.6144 17.0583 20.1834 16.3656 20.5794C15.6729 20.9754 14.8911 21.185 14.0951 21.1882L14.0936 21.1896ZM18.1872 12.9372C18.1364 13.3769 18.8854 13.9382 18.7852 14.3016C18.6647 14.7486 17.7401 14.7999 17.563 15.1003C17.2973 15.54 17.3409 16.453 16.9997 16.453C16.6586 16.453 16.7007 15.5473 16.4365 15.1003C16.258 14.7999 15.3347 14.7486 15.2128 14.3016C15.1141 13.9382 15.8617 13.371 15.8109 12.9372C15.7659 12.5503 14.9007 12.1898 14.9007 11.7648C14.9007 11.3398 15.7717 10.9807 15.8109 10.5924C15.8617 10.1527 15.1141 9.58994 15.2128 9.22649C15.3347 8.78683 16.258 8.72821 16.4365 8.42778C16.7007 7.98079 16.6572 7.07509 16.9997 7.07509C17.3423 7.07509 17.2901 7.98079 17.563 8.42778C17.7401 8.72821 18.6647 8.78097 18.7852 9.22649C18.8854 9.58994 18.1364 10.1586 18.1872 10.5909C18.2322 10.9793 19.0988 11.3383 19.0988 11.7633C19.0988 12.1883 18.2336 12.5489 18.1886 12.9358L18.1872 12.9372Z" fill="#FFD600"/>
</svg>
