<svg width="20" height="20" viewBox="0 0 20 20" fill="none" xmlns="http://www.w3.org/2000/svg">
<path d="M16.0706 18.807C16.0731 18.9377 16.0419 19.0668 15.9803 19.1805C15.9188 19.2942 15.829 19.3884 15.7206 19.4532C15.6099 19.5239 15.482 19.5596 15.3523 19.5559C15.2227 19.5521 15.0968 19.5092 14.9899 19.4322C14.6492 19.2092 14.3101 18.9782 13.9709 18.7521C12.602 17.8356 11.2331 16.9202 9.86415 16.0059C9.83487 15.9812 9.79843 15.9678 9.76087 15.9678C9.72331 15.9678 9.68687 15.9812 9.65759 16.0059C7.96081 17.1453 6.26506 18.2815 4.57035 19.4144C4.4759 19.4862 4.3657 19.5318 4.24996 19.5471C4.13421 19.5624 4.01666 19.5469 3.90816 19.502C3.79966 19.457 3.70373 19.3842 3.62924 19.2901C3.55475 19.196 3.5041 19.0837 3.48199 18.9637C3.4627 18.842 3.46901 18.7174 3.50048 18.5986C3.90438 16.9509 4.31136 15.3037 4.72142 13.657C4.82008 13.2564 4.9172 12.8493 5.02203 12.4568C5.0345 12.4218 5.03502 12.3834 5.0235 12.348C5.01197 12.3127 4.98912 12.2826 4.95882 12.2629C3.3977 10.92 1.83814 9.57379 0.280104 8.22437C0.162553 8.13461 0.0754926 8.00778 0.0316665 7.86245C-0.0121596 7.71712 -0.010454 7.5609 0.036531 7.41666C0.082698 7.26938 0.17212 7.14118 0.292007 7.05036C0.411894 6.95955 0.556111 6.91078 0.704041 6.91103L5.51842 6.60571C5.91306 6.58148 6.30771 6.55241 6.70235 6.53464C6.74993 6.53826 6.79719 6.52398 6.83562 6.49437C6.87405 6.46476 6.90114 6.42176 6.91202 6.37309C7.63862 4.42166 8.36728 2.47131 9.09799 0.522031C9.13594 0.397487 9.20426 0.28548 9.29618 0.197085C9.38811 0.10869 9.50045 0.0469679 9.62212 0.0180193C9.78695 -0.0212153 9.9598 0.0041095 10.108 0.0892191C10.2563 0.174329 10.3697 0.313337 10.4268 0.480028C10.657 1.09281 10.8857 1.70452 11.1128 2.31515C11.6267 3.67964 12.1406 5.04522 12.6544 6.41186C12.6628 6.44715 12.6829 6.47814 12.7112 6.49918C12.7395 6.52023 12.774 6.52994 12.8086 6.52656C14.1837 6.61056 15.5578 6.69618 16.9308 6.78341C17.5793 6.82433 18.2293 6.8658 18.8809 6.9078C19.0245 6.91354 19.1629 6.96545 19.2774 7.05649C19.3918 7.14753 19.4768 7.27328 19.5207 7.41666C19.5665 7.56071 19.568 7.71622 19.5248 7.86118C19.4816 8.00613 19.3961 8.1332 19.2802 8.22437L14.8188 12.0578C14.7371 12.1272 14.6647 12.2032 14.5722 12.2662C14.542 12.2867 14.5196 12.3176 14.5089 12.3536C14.4982 12.3896 14.4999 12.4284 14.5136 12.4632C14.9247 14.1013 15.3311 15.7399 15.733 17.379C15.8332 17.7877 15.9365 18.1948 16.0413 18.6051C16.0545 18.6718 16.0643 18.7392 16.0706 18.807Z" fill="white"/>
</svg>
