<svg width="73" height="75" viewBox="0 0 73 75" fill="none" xmlns="http://www.w3.org/2000/svg">
<path d="M54.7147 73L69.3141 62.3841L60.8876 54.3004C64.0231 50.2099 66.9625 45.4376 70 39.9835L55.9885 33.4582C53.9308 37.0617 51.9712 40.5679 49.7176 43.4897L43.5447 37.5487C51.0893 33.6529 55.8905 27.6145 55.8905 19.9204V19.7256C55.8905 9.59671 47.6599 2 34.4323 2C20.9107 2 12.2882 10.5706 12.2882 20.8944V21.0892C12.2882 25.2771 13.464 29.3676 16.5014 33.7503C6.40922 38.1331 2 44.8532 2 53.0343V53.2291C2 65.8903 13.072 72.9026 27.8674 72.9026C35.7061 72.9026 42.4669 70.8573 48.5418 66.7668L54.7147 73ZM33.5504 28.5885C31.5908 25.9588 30.513 23.8162 30.513 21.4787V21.284C30.513 18.1674 32.2767 16.1221 34.8242 16.1221C37.2738 16.1221 38.9395 17.8752 38.9395 20.6996V20.8944C38.9395 23.8162 37.3718 26.6406 33.5504 28.5885ZM31.1988 57.417C27.2795 57.417 24.732 55.2743 24.732 51.963V51.7682C24.732 49.6255 25.7118 47.5802 28.1614 45.8272L37.6657 55.4691C35.5101 56.6379 33.2565 57.417 31.1988 57.417Z" fill="white" stroke="#005CFF" stroke-width="3"/>
</svg>
