<svg width="146" height="149" viewBox="0 0 146 149" fill="none" xmlns="http://www.w3.org/2000/svg">
<path d="M145.97 6.57864L139.535 0.00634766H139.112V43.2401L139.255 43.3894L145.684 49.9617H146V49.7108L145.97 6.57864ZM139.535 0.603828L145.542 6.75191V49.173L139.535 43.0309V0.603828Z" fill="black"/>
<path d="M145.97 105.611L139.535 99.0386H139.112V142.278L139.255 142.428L145.684 149H146V148.755L145.97 105.611ZM139.535 99.6361L145.542 105.784V148.205L139.535 142.063V99.6361Z" fill="black"/>
<path d="M83.0879 56.0977L76.6526 49.5254H76.23V92.7651L76.3728 92.9144L82.8022 99.4867H83.1177V99.2358L83.0879 56.0977ZM76.6526 50.1229L82.6593 56.2709V98.6921L76.6526 92.55V50.1229Z" fill="black"/>
<path d="M139.327 0.227051H0.221313V43.162H139.327V0.227051Z" fill="#FFDF05"/>
<path d="M0.000915527 0V43.4189H139.553V0H0.000915527ZM0.447396 0.44811H139.112V42.9409H0.447396V0.44811Z" fill="black"/>
<path d="M76.4445 49.7402H0.221375V92.6752H76.4445V49.7402Z" fill="#FFDF05"/>
<path d="M0.000976562 49.519V92.8961H76.6706V49.519H0.000976562ZM76.23 92.454H0.447457V49.991H76.23V92.454Z" fill="black"/>
<path d="M139.327 99.2534H0.221375V142.188H139.327V99.2534Z" fill="#FFDF05"/>
<path d="M0.000976562 99.0264V142.415H139.553V99.0264H0.000976562ZM139.112 141.967H0.447457V99.4745H139.112V141.967Z" fill="black"/>
<path d="M24.0454 31.3261V23.523H16.1873V31.3261H11.9249V11.896H16.1873V19.5856H24.0454V11.896H28.3018V31.3261H24.0454Z" fill="black"/>
<path d="M43.0418 31.6603C37.0887 31.6603 32.7787 27.1911 32.7787 21.6644V21.6107C32.7787 16.084 37.1244 11.561 43.0953 11.561C49.0663 11.561 53.3584 16.0302 53.3584 21.5569V21.6107C53.3584 27.1314 49.0187 31.6603 43.0418 31.6603ZM48.9056 21.6107C48.9056 18.2767 46.4708 15.5044 43.0418 15.5044C39.6128 15.5044 37.2316 18.2229 37.2316 21.5569V21.6107C37.2316 24.9386 39.6664 27.7169 43.0953 27.7169C46.5243 27.7169 48.9056 24.9984 48.9056 21.6644V21.6107Z" fill="black"/>
<path d="M65.9126 31.6298C60.7097 31.6298 57.5307 28.7141 57.5307 22.9962V11.895H61.7931V22.8887C61.7931 26.0493 63.3647 27.6685 65.9603 27.6685C68.5558 27.6685 70.1274 26.0912 70.1274 23.0082V11.895H74.3838V22.8588C74.4017 28.744 71.1097 31.6298 65.9126 31.6298Z" fill="black"/>
<path d="M86.3202 31.6069C83.2939 31.617 80.3696 30.5089 78.105 28.494L80.6232 25.4708C82.3674 26.9107 84.195 27.8308 86.4036 27.8308C88.1478 27.8308 89.1955 27.1318 89.1955 25.9966V25.9428C89.1955 24.8554 88.5348 24.3057 85.2963 23.4692C81.397 22.4714 78.8789 21.39 78.8789 17.5303V17.4765C78.8789 13.9454 81.7006 11.6152 85.6594 11.6152C88.2705 11.5734 90.8141 12.4483 92.8507 14.0888L90.6362 17.3092C88.9217 16.1142 87.237 15.3913 85.5999 15.3913C83.9628 15.3913 83.1115 16.1381 83.1115 17.0822V17.1419C83.1115 18.4205 83.945 18.8328 87.2787 19.6931C91.2077 20.7208 93.4163 22.1368 93.4163 25.5246V25.5783C93.4103 29.4381 90.4993 31.6069 86.3202 31.6069Z" fill="black"/>
<path d="M97.822 31.3251V11.895H112.461V15.695H102.055V19.6384H111.187V23.4443H102.055V27.5251H112.568V31.3251H97.822Z" fill="black"/>
<path d="M19.3782 81.2565C13.4251 81.2565 9.11511 76.7873 9.11511 71.2606V71.2068C9.11511 65.6801 13.4549 61.1572 19.4318 61.1572C25.4087 61.1572 29.7127 65.6264 29.7127 71.1531V71.2068C29.7127 76.7335 25.3491 81.2565 19.3782 81.2565ZM25.242 71.2068C25.242 67.8729 22.8072 65.1006 19.3782 65.1006C15.9492 65.1006 13.568 67.8191 13.568 71.1531V71.2068C13.568 74.5408 16.0028 77.3131 19.4318 77.3131C22.8608 77.3131 25.242 74.5946 25.242 71.2606V71.2068Z" fill="black"/>
<path d="M38.428 65.3763V69.5168H47.6671V73.4005H38.428V80.9227H34.1715V61.4927H48.9113V65.3763H38.428Z" fill="black"/>
<path d="M21.2887 130.436H12.0793V111.006H21.0684C25.0213 111.006 27.4561 112.978 27.4561 116.031V116.084C27.4773 116.953 27.2489 117.809 26.7981 118.551C26.3474 119.293 25.6933 119.888 24.9141 120.267C27.1525 121.127 28.5336 122.43 28.5336 125.047V125.1C28.5217 128.661 25.6582 130.436 21.2887 130.436ZM23.2234 116.754C23.2234 115.475 22.2293 114.752 20.4314 114.752H16.2286V118.863H20.1516C22.0328 118.863 23.2234 118.265 23.2234 116.807V116.754ZM24.3009 124.521C24.3009 123.212 23.3365 122.406 21.1518 122.406H16.2286V126.684H21.2887C23.1699 126.684 24.3009 126.015 24.3009 124.575V124.521Z" fill="black"/>
<path d="M47.1489 130.436L45.3629 126.08H37.1894L35.4035 130.436H31.0577L39.3563 110.868H43.2853L51.5839 130.436H47.1489ZM41.2851 116.001L38.7134 122.286H43.8568L41.2851 116.001Z" fill="black"/>
<path d="M64.4846 130.436H55.2752V111.006H64.2405C68.1934 111.006 70.6282 112.978 70.6282 116.031V116.084C70.6494 116.953 70.421 117.809 69.9703 118.551C69.5195 119.293 68.8654 119.888 68.0862 120.267C70.3246 121.127 71.7116 122.43 71.7116 125.047V125.1C71.7354 128.661 68.8541 130.436 64.4846 130.436ZM66.4193 116.754C66.4193 115.475 65.4252 114.752 63.6273 114.752H59.4245V118.863H63.3535C65.2347 118.863 66.4193 118.265 66.4193 116.807V116.754ZM67.5028 124.521C67.5028 123.212 66.5325 122.406 64.3477 122.406H59.4245V126.684H64.4846C66.3658 126.684 67.5028 126.015 67.5028 124.575V124.521Z" fill="black"/>
<path d="M90.3445 130.436L88.5586 126.08H80.385L78.5991 130.436H74.2534L82.5519 110.868H86.481L94.7795 130.436H90.3445ZM84.4807 116.001L81.909 122.286H87.0525L84.4807 116.001Z" fill="black"/>
<path d="M105.084 130.717C102.058 130.729 99.1327 129.621 96.8692 127.604L99.3873 124.581C101.126 126.021 102.959 126.971 105.168 126.971C106.912 126.971 107.96 126.278 107.96 125.137V125.083C107.96 124.001 107.293 123.446 104.061 122.609C100.161 121.612 97.6431 120.53 97.6431 116.67V116.617C97.6431 113.091 100.465 110.755 104.418 110.755C107.029 110.714 109.572 111.588 111.609 113.229L109.4 116.449C107.686 115.254 105.995 114.531 104.364 114.531C102.733 114.531 101.876 115.284 101.876 116.228V116.282C101.876 117.561 102.703 117.973 106.043 118.833C109.972 119.861 112.186 121.277 112.186 124.665V124.677C112.192 128.548 109.258 130.717 105.084 130.717Z" fill="black"/>
<path d="M0.421546 92.4444L0.00488281 92.8711L6.68879 99.445L7.10546 99.0182L0.421546 92.4444Z" fill="black"/>
<path d="M0.416663 42.9243L0 43.3511L6.68391 49.9249L7.10057 49.4982L0.416663 42.9243Z" fill="black"/>
<path d="M145.679 49.5132H76.4448V49.9613H145.679V49.5132Z" fill="black"/>
<path d="M0.42594 141.946L0.00927734 142.373L6.69319 148.947L7.10985 148.52L0.42594 141.946Z" fill="black"/>
<path d="M145.678 148.54H6.69812V148.988H145.678V148.54Z" fill="black"/>
</svg>
