<svg width="92" height="85" viewBox="0 0 92 85" fill="none" xmlns="http://www.w3.org/2000/svg">
<path fill-rule="evenodd" clip-rule="evenodd" d="M58.6372 4.33344C60.725 4.99295 61.8143 7.57674 62.8964 10.1437C63.7851 12.2516 64.6689 14.3482 66.0971 15.3585C67.5304 16.3725 69.8709 16.5476 72.2195 16.7234C75.0607 16.936 77.914 17.1494 79.1882 18.85C80.4578 20.5444 79.7918 23.2111 79.1241 25.8848C78.5677 28.1127 78.0101 30.3454 78.5701 32.0246C79.1005 33.6224 80.8528 35.0626 82.627 36.5209C84.817 38.3208 87.0403 40.1481 87.0403 42.3332C87.0403 44.5176 84.8162 46.3463 82.6255 48.1475C80.8537 49.6043 79.1038 51.0431 78.5701 52.6376C78.0088 54.3227 78.566 56.5692 79.1209 58.8064C79.7839 61.4795 80.4436 64.1393 79.1882 65.8122C77.9298 67.4891 75.0989 67.7059 72.2668 67.9228C69.9086 68.1034 67.5497 68.2841 66.0971 69.3078C64.6509 70.3269 63.7646 72.4343 62.8758 74.5479C61.7996 77.1069 60.7196 79.6751 58.6372 80.3329C56.6525 80.957 54.2911 79.5465 51.8981 78.1171C49.8605 76.9001 47.8 75.6693 45.9297 75.6693C44.0591 75.6693 41.9973 76.9005 39.9588 78.1178C37.5655 79.5469 35.2043 80.9569 33.2223 80.3329C31.1306 79.6729 30.0402 77.0859 28.9575 74.5171C28.0698 72.411 27.1873 70.3172 25.7624 69.3078C24.3315 68.2941 21.9915 68.1188 19.6424 67.9427C16.7987 67.7296 13.9416 67.5155 12.667 65.8122C11.3981 64.1164 12.0639 61.4531 12.7318 58.7819C13.2889 56.5535 13.8474 54.3197 13.2851 52.6376C12.7514 51.0431 11.0015 49.6043 9.22969 48.1475C7.039 46.3463 4.8149 44.5176 4.8149 42.3332C4.8149 40.1494 7.03756 38.3212 9.22755 36.5199C11.0001 35.0619 12.7512 33.6216 13.2851 32.0246C13.8486 30.3408 13.2909 28.0943 12.7354 25.8565C12.0721 23.1844 11.4119 20.5247 12.667 18.85C13.9263 17.1696 16.7605 16.9539 19.5954 16.7381C21.952 16.5588 24.3091 16.3794 25.7624 15.3585C27.2112 14.3408 28.0969 12.2321 28.9852 10.1171C30.0598 7.5587 31.1383 4.99096 33.2223 4.33344C35.2039 3.70955 37.5634 5.11763 39.9557 6.54535C41.9943 7.76195 44.0567 8.99281 45.9297 8.99281C47.8046 8.99281 49.8684 7.76302 51.9084 6.54741C54.298 5.12348 56.6549 3.71902 58.6372 4.33344ZM9.22733 53.9475C9.20955 53.9192 9.0562 53.6351 8.45147 53.0486C7.91729 52.5304 7.31706 52.0365 6.56492 51.4175C6.33708 51.23 6.0953 51.0311 5.83719 50.8165C4.85099 49.9965 3.60537 48.9289 2.61242 47.6925C1.60928 46.4434 0.543447 44.6316 0.543447 42.3332C0.543447 40.0347 1.60928 38.2229 2.61233 36.9738C3.60516 35.7375 4.85069 34.6697 5.83668 33.8497C6.09374 33.636 6.33461 33.4377 6.56166 33.2507C7.31486 32.6307 7.91584 32.1359 8.4504 31.617C9.0639 31.0215 9.21303 30.7373 9.2274 30.7154C9.23809 30.661 9.29417 30.32 9.16219 29.4645C9.04467 28.7027 8.8484 27.9101 8.60139 26.9124C8.54368 26.6794 8.48319 26.4351 8.4203 26.1774C8.12462 24.966 7.76237 23.4029 7.69676 21.8612C7.63074 20.3103 7.83453 18.2295 9.22285 16.377C10.6053 14.5323 12.5675 13.7096 14.0902 13.2947C15.612 12.8799 17.2475 12.7293 18.5306 12.6265C18.8154 12.6037 19.0852 12.5831 19.3424 12.5634C20.3831 12.4836 21.2171 12.4197 21.9984 12.2943C22.9372 12.1435 23.2461 11.9757 23.2704 11.9625C23.2704 11.9625 23.2704 11.9625 23.2704 11.9625C23.2718 11.9617 23.2722 11.9615 23.2718 11.9618M9.22733 53.9475C9.23882 54.0079 9.29123 54.3484 9.16026 55.1879C9.04242 55.9432 8.84702 56.7267 8.60066 57.7145C8.5412 57.953 8.47877 58.2033 8.41374 58.468C8.11625 59.6791 7.75198 61.2439 7.6876 62.7915C7.6226 64.3539 7.8347 66.4301 9.22104 68.2828C10.6045 70.1316 12.566 70.9619 14.0992 71.3818C15.6287 71.8007 17.2697 71.9515 18.5567 72.0535C18.8541 72.0771 19.1349 72.0983 19.4018 72.1184C20.4301 72.196 21.2527 72.258 22.0247 72.3807C22.8986 72.5195 23.2112 72.6726 23.2546 72.6938C23.2557 72.6944 23.2565 72.6948 23.2573 72.6952C23.2579 72.6958 23.2588 72.6966 23.2598 72.6976C23.2941 72.7317 23.5341 72.9701 23.9304 73.7225C24.2811 74.3886 24.5875 75.1145 24.9722 76.0258C25.0781 76.2767 25.1899 76.5416 25.3102 76.8232C25.806 77.9837 26.4623 79.4627 27.3548 80.7572C28.2561 82.0647 29.6844 83.6095 31.9118 84.3122L31.9144 84.313C34.1374 85.0129 36.2129 84.5454 37.6815 84.0074C39.1474 83.4704 40.5524 82.6556 41.6405 82.0104C41.8449 81.8892 42.0401 81.7728 42.2276 81.661C43.1579 81.1063 43.8992 80.6642 44.6305 80.312C45.0412 80.1142 45.3576 79.9915 45.598 79.9206C45.8219 79.8546 45.9233 79.8506 45.9297 79.8504C45.9366 79.8506 46.038 79.8548 46.261 79.9206C46.5012 79.9914 46.8174 80.114 47.2279 80.3118C47.9585 80.6638 48.699 81.1055 49.6285 81.6599C49.8164 81.772 50.012 81.8887 50.2169 82.0102C51.3049 82.6555 52.71 83.4705 54.1764 84.0075C55.646 84.5458 57.7209 85.0125 59.9437 84.3135L59.9463 84.3126L59.949 84.3118C62.1773 83.6079 63.6032 82.0615 64.5019 80.7534C65.3909 79.4594 66.0439 77.9807 66.5367 76.8236C66.6513 76.5546 66.7582 76.3007 66.8596 76.0598C67.2487 75.136 67.5577 74.4025 67.9117 73.7322C68.317 72.965 68.5611 72.7317 68.5911 72.7031C68.5925 72.7017 68.5935 72.7008 68.5939 72.7003C68.5941 72.7003 68.5942 72.7002 68.5944 72.7001C68.62 72.6862 68.9287 72.5192 69.8621 72.3685C70.6441 72.2423 71.4799 72.1778 72.5235 72.0973C72.7782 72.0777 73.0453 72.0571 73.3269 72.0344C74.6092 71.9312 76.2439 71.7802 77.7646 71.3659C79.2858 70.9515 81.2478 70.1302 82.6307 68.2874C84.0203 66.4357 84.2246 64.3549 84.1591 62.8044C84.0939 61.2632 83.7321 59.7002 83.4367 58.4887C83.3736 58.23 83.3129 57.9847 83.255 57.7507C83.0085 56.7542 82.8124 55.9617 82.6947 55.1996C82.5654 54.3615 82.6157 54.0146 82.6285 53.9464C82.6492 53.9127 82.8058 53.6285 83.4037 53.0486C83.9379 52.5304 84.5382 52.0364 85.2903 51.4174C85.5182 51.23 85.7599 51.031 86.018 50.8165C87.0042 49.9965 88.2498 48.9289 89.2428 47.6925C90.2459 46.4434 91.3117 44.6316 91.3117 42.3332C91.3117 40.0332 90.2449 38.2205 89.2407 36.9709C88.2469 35.7343 87.0002 34.6666 86.0139 33.8471C85.758 33.6344 85.5182 33.4371 85.2921 33.2511C84.5372 32.6301 83.9357 32.1353 83.4013 31.6166C82.7841 31.0174 82.6403 30.7358 82.6296 30.7215C82.6203 30.6742 82.5621 30.3376 82.6966 29.4761C82.8145 28.7212 83.0095 27.9383 83.2552 26.9523C83.315 26.7121 83.3779 26.4598 83.4433 26.1929C83.7407 24.981 84.1043 23.4158 84.1682 21.8683C84.2327 20.3065 84.0204 18.2295 82.6325 16.3773C81.2487 14.5305 79.2881 13.7015 77.7558 13.2823C76.2274 12.8643 74.5876 12.7139 73.3015 12.6122C73.0056 12.5888 72.7262 12.5678 72.4604 12.5478C71.4314 12.4702 70.6082 12.4082 69.8358 12.2855C68.9565 12.1458 68.6443 11.9916 68.6025 11.971C68.6015 11.9705 68.6007 11.9701 68.6001 11.9697C68.5994 11.9691 68.5985 11.9682 68.5975 11.9672C68.5634 11.9335 68.323 11.6956 67.9259 10.9423C67.5743 10.2752 67.267 9.54746 66.8811 8.63332C66.7761 8.38455 66.6652 8.12199 66.5461 7.84309C66.0505 6.68319 65.3946 5.20455 64.5032 3.91041C63.6031 2.60372 62.1759 1.05793 59.949 0.354496L59.9378 0.350977L59.9267 0.347518C57.7089 -0.339909 55.6407 0.128316 54.1753 0.665752C52.7121 1.20236 51.3091 2.01476 50.222 2.65821C50.0214 2.77689 49.8297 2.89098 49.6454 3.00067C48.7116 3.55636 47.9679 3.99893 47.2348 4.35091C46.8244 4.54798 46.5077 4.67038 46.2667 4.74115C46.0378 4.80836 45.9351 4.81164 45.9298 4.8118C45.9255 4.81165 45.8237 4.80849 45.5954 4.74129C45.3546 4.67042 45.038 4.54777 44.6273 4.35015C43.8956 3.99807 43.1539 3.55605 42.2231 3.00127C42.0362 2.88989 41.8417 2.77395 41.6381 2.65329C40.5503 2.00866 39.1456 1.1944 37.68 0.657879C36.2114 0.120282 34.1366 -0.346376 31.9144 0.353261L31.9118 0.354076C29.6816 1.05775 28.2548 2.6049 27.3557 3.91441C26.4666 5.20928 25.8142 6.68896 25.322 7.846C25.2081 8.11379 25.1018 8.36648 25.0009 8.60632C24.6116 9.53174 24.3029 10.2657 23.9489 10.9359C23.5472 11.6965 23.3045 11.9296 23.2735 11.9595M82.6308 30.7275C82.6309 30.7278 82.631 30.7282 82.6311 30.7286Z" fill="#F90000"/>
</svg>
