<svg width="25" height="23" viewBox="0 0 25 23" fill="none" xmlns="http://www.w3.org/2000/svg">
<path d="M22.4247 8.39393C22.0501 7.27909 23.3138 5.34904 22.6126 4.42147C21.9114 3.49389 19.6044 4.04694 18.6324 3.36905C17.6603 2.69116 17.5203 0.407809 16.363 0.0457683C15.247 -0.30254 13.7371 1.45149 12.5006 1.45149C11.2642 1.45149 9.75297 -0.30254 8.63705 0.0457683C7.47965 0.407809 7.3306 2.69366 6.36762 3.36905C5.40464 4.04444 3.09502 3.48515 2.38736 4.42147C1.6797 5.35778 2.95116 7.27909 2.5753 8.39393C2.2124 9.46881 0 10.309 0 11.5C0 12.691 2.2124 13.5312 2.5753 14.606C2.95116 15.7209 1.68618 17.6509 2.38736 18.5785C3.08854 19.5061 5.39556 18.953 6.36762 19.6309C7.33968 20.3088 7.47965 22.5922 8.63705 22.9542C9.75297 23.3025 11.2629 21.5497 12.5006 21.5497C13.7384 21.5497 15.247 23.2975 16.3643 22.9542C17.5203 22.5922 17.6694 20.3063 18.6324 19.6309C19.5954 18.9555 21.905 19.5148 22.6126 18.5785C23.3203 17.6422 22.0501 15.7209 22.4247 14.606C22.7876 13.5312 25 12.691 25 11.5C25 10.309 22.7876 9.47131 22.4247 8.39393ZM22.9289 13.2627C22.4636 13.6373 21.9827 14.0343 21.8505 14.4275C21.7093 14.847 21.8609 15.455 22.0086 16.043C22.2018 16.8145 22.3975 17.611 21.9957 18.1478C21.5939 18.6846 20.732 18.7533 19.9051 18.8145C19.283 18.8594 18.6402 18.9068 18.2773 19.1615C17.9144 19.4162 17.6785 19.9805 17.4439 20.5348C17.1276 21.2838 16.7958 22.0491 16.1284 22.2588C15.4803 22.4598 14.7688 22.0354 14.0741 21.6246C13.5323 21.3025 12.9711 20.9705 12.5006 20.9705C12.0302 20.9705 11.4638 21.3025 10.9259 21.6246C10.3543 21.963 9.76723 22.31 9.21899 22.31C9.10156 22.3105 8.98478 22.2932 8.87293 22.2588C8.20026 22.0491 7.87235 21.2788 7.55611 20.5348C7.32152 19.983 7.07916 19.4112 6.72274 19.1615C6.36632 18.9118 5.71698 18.8594 5.09486 18.8145C4.26926 18.7533 3.40997 18.6896 3.00429 18.1478C2.59862 17.606 2.79822 16.8145 2.99134 16.043C3.13909 15.455 3.29073 14.847 3.14945 14.4275C3.01985 14.0343 2.53642 13.6423 2.07113 13.2627C1.42309 12.7384 0.76339 12.1966 0.76339 11.5012C0.76339 10.8059 1.42827 10.2641 2.07113 9.73972C2.53642 9.36519 3.01725 8.9682 3.14945 8.57495C3.29073 8.15673 3.13909 7.5475 2.99134 6.9595C2.79822 6.18798 2.60251 5.39148 3.00429 4.85467C3.40608 4.31785 4.26926 4.24919 5.09486 4.18926C5.71698 4.14307 6.36114 4.09563 6.72274 3.84095C7.08435 3.58628 7.32152 3.02199 7.55611 2.46769C7.87235 1.71865 8.20415 0.953365 8.87293 0.742383C9.52096 0.541388 10.2312 0.965851 10.9259 1.37658C11.469 1.69867 12.0302 2.03075 12.5006 2.03075C12.9711 2.03075 13.5375 1.69867 14.0741 1.37658C14.7688 0.965851 15.4855 0.541388 16.1284 0.742383C16.7997 0.953365 17.1276 1.72239 17.4439 2.46645C17.6785 3.01825 17.9208 3.59002 18.2773 3.83971C18.6337 4.08939 19.283 4.14182 19.9051 4.18801C20.732 4.24794 21.59 4.31286 21.9957 4.85342C22.4014 5.39398 22.2018 6.18673 22.0086 6.95825C21.8609 7.54625 21.7093 8.15423 21.8505 8.5737C21.9801 8.96695 22.4636 9.35895 22.9289 9.73847C23.5769 10.2628 24.2379 10.8046 24.2379 11.5C24.2379 12.1954 23.573 12.7372 22.9289 13.2615V13.2627ZM22.6787 10.0256C22.1707 9.61238 21.6419 9.18542 21.4799 8.69105C21.3049 8.17171 21.4708 7.51005 21.6302 6.87086C21.8026 6.18298 21.9814 5.47139 21.6821 5.07564C21.3827 4.67989 20.6141 4.61622 19.8753 4.56254C19.1988 4.5126 18.5002 4.46141 18.0478 4.14432C17.5955 3.82722 17.3389 3.21175 17.0849 2.61251C16.801 1.94711 16.5081 1.25923 16.0078 1.10193C15.5374 0.954614 14.8971 1.33413 14.2776 1.69992C13.6892 2.04823 13.08 2.40902 12.5006 2.40902C11.9213 2.40902 11.3108 2.04823 10.7224 1.69992C10.204 1.38906 9.65706 1.06947 9.21769 1.06947C9.14126 1.06939 9.06524 1.08033 8.99217 1.10193C8.49189 1.25923 8.19897 1.94711 7.91642 2.61251C7.65721 3.21175 7.398 3.83221 6.95215 4.14432C6.5063 4.45642 5.80124 4.5126 5.12469 4.56254C4.38592 4.61622 3.62253 4.6724 3.31925 5.07564C3.01597 5.47888 3.19742 6.18298 3.3698 6.87086C3.52921 7.51005 3.69512 8.17171 3.52015 8.69105C3.35295 9.19042 2.82932 9.61238 2.32256 10.0256C1.7471 10.495 1.15609 10.9794 1.15609 11.5012C1.15609 12.0231 1.75099 12.5075 2.32256 12.9769C2.82932 13.3901 3.35943 13.817 3.52015 14.3127C3.69512 14.832 3.52921 15.4924 3.3698 16.1316C3.19742 16.8195 3.01985 17.5311 3.31925 17.9268C3.61864 18.3226 4.38592 18.3862 5.12469 18.4399C5.80124 18.4899 6.49982 18.5411 6.95215 18.8582C7.40448 19.1752 7.6611 19.7907 7.91642 20.39C8.19897 21.0554 8.49189 21.7432 8.99217 21.9005C9.46394 22.0479 10.1029 21.6683 10.7224 21.3025C11.3108 20.9542 11.92 20.5934 12.5006 20.5934C13.0813 20.5934 13.6892 20.9542 14.2776 21.3025C14.8971 21.6683 15.5361 22.0516 16.0078 21.9005C16.5081 21.7432 16.801 21.0554 17.0849 20.39C17.3441 19.7907 17.6033 19.1703 18.0478 18.8582C18.4924 18.546 19.2001 18.4899 19.8753 18.4399C20.6141 18.3862 21.3775 18.3301 21.6821 17.9268C21.9866 17.5236 21.8026 16.8195 21.6302 16.1316C21.4708 15.4924 21.3049 14.832 21.4799 14.3127C21.647 13.8133 22.1707 13.3901 22.6774 12.9769C23.2529 12.5075 23.8439 12.0231 23.8439 11.5012C23.8439 10.9794 23.2542 10.4938 22.6787 10.0244V10.0256ZM7.90347 12.1829C7.81533 11.8733 8.48411 11.3901 8.43875 11.0206C8.39727 10.691 7.62481 10.3839 7.62481 10.0219C7.62481 9.65982 8.40246 9.35396 8.43875 9.02313C8.48411 8.6486 7.81533 8.16921 7.90347 7.8596C8.01234 7.48508 8.83665 7.43514 8.99606 7.17922C9.23325 6.79845 9.19307 6.02693 9.49894 6.02693C9.80482 6.02693 9.75814 6.79845 10.0018 7.17922C10.1612 7.43514 10.9855 7.48009 11.0944 7.8596C11.1825 8.16921 10.5138 8.6536 10.5591 9.02188C10.5993 9.35271 11.3731 9.65857 11.3731 10.0206C11.3731 10.3827 10.5954 10.6898 10.5591 11.0193C10.5138 11.3939 11.1825 11.872 11.0931 12.1816C10.9855 12.5624 10.1612 12.6061 10.0018 12.862C9.76462 13.2365 9.80352 14.0143 9.49894 14.0143C9.19436 14.0143 9.23195 13.2428 8.99606 12.862C8.83794 12.6061 8.01363 12.5624 7.90476 12.1816L7.90347 12.1829ZM12.5836 18.0504H12.4812C10.2921 17.9967 9.17492 16.3139 9.05438 16.1229L9.94219 15.606C9.97848 15.6635 10.8417 17.0117 12.5071 17.0517C13.0528 17.0631 13.5919 16.9353 14.0699 16.6815C14.5478 16.4276 14.9477 16.0566 15.2289 15.606L16.1167 16.1229C15.7487 16.7085 15.2306 17.1933 14.6121 17.5306C13.9937 17.8679 13.2956 18.0465 12.5849 18.0492L12.5836 18.0504ZM16.2385 11.0206C16.1932 11.3951 16.8619 11.8733 16.7725 12.1829C16.6649 12.5636 15.8393 12.6073 15.6812 12.8633C15.444 13.2378 15.4829 14.0155 15.1783 14.0155C14.8738 14.0155 14.9113 13.244 14.6755 12.8633C14.516 12.6073 13.6917 12.5636 13.5829 12.1829C13.4947 11.8733 14.1622 11.3901 14.1168 11.0206C14.0767 10.691 13.3042 10.3839 13.3042 10.0219C13.3042 9.65982 14.0818 9.35396 14.1168 9.02313C14.1622 8.6486 13.4947 8.16921 13.5829 7.8596C13.6917 7.48508 14.516 7.43514 14.6755 7.17922C14.9113 6.79845 14.8725 6.02693 15.1783 6.02693C15.4842 6.02693 15.4376 6.79845 15.6812 7.17922C15.8393 7.43514 16.6649 7.48009 16.7725 7.8596C16.8619 8.16921 16.1932 8.6536 16.2385 9.02188C16.2787 9.35271 17.0525 9.65857 17.0525 10.0206C17.0525 10.3827 16.28 10.6898 16.2398 11.0193L16.2385 11.0206Z" fill="black"/>
</svg>
