<svg width="95" height="84" viewBox="0 0 95 84" fill="none" xmlns="http://www.w3.org/2000/svg">
<path d="M47.7765 83.8799C39.6228 83.8799 31.4691 83.8799 23.3154 83.8799C20.8476 83.8799 19.9027 82.8992 19.9007 80.3924C19.9007 66.5981 19.9007 52.8025 19.9007 39.0056C19.9007 37.2972 20.2144 37.3737 18.2713 37.3717C15.772 37.3717 13.2726 37.3403 10.7752 37.3717C7.88132 37.4149 7.42169 36.6774 6.68983 34.404C5.40168 30.4399 4.24372 26.4346 3.01673 22.4509C2.42493 20.5247 1.79565 18.6084 1.18807 16.6862C0.50553 14.5286 0.971082 12.9221 2.54724 12.2023C3.82553 11.6138 5.13537 11.1039 6.43141 10.5586C9.92565 9.08747 13.4179 7.61768 16.9082 6.1492C20.8161 4.50746 24.7318 2.84022 28.6594 1.23182C29.8298 0.753078 31.032 0.355268 32.2575 0.0412168C32.6382 -0.0588177 33.1531 0.166749 33.5496 0.358972C36.5422 1.83011 39.7327 2.864 43.0223 3.42866C45.6819 3.86985 48.3907 3.93588 51.0688 3.6248C54.7952 3.20897 58.3677 2.1949 61.6975 0.406045C62.6996 -0.133356 63.6702 -0.111781 64.7039 0.331509C68.7636 2.05759 72.849 3.72876 76.9127 5.45092C81.7536 7.50261 86.5787 9.58568 91.4157 11.6589C92.043 11.9277 92.7078 12.1454 93.2818 12.5004C94.4891 13.2477 94.9704 14.4736 94.5562 15.8035C93.416 19.4675 92.2146 23.1158 91.0685 26.7877C90.242 29.4278 89.4904 32.0836 88.6619 34.7336C88.0997 36.5518 87.3639 37.3639 85.1979 37.3541C82.3059 37.3423 79.412 37.3737 76.5182 37.3364C75.6916 37.3246 75.372 37.5326 75.374 38.429C75.4016 50.3925 75.4069 62.3575 75.3898 74.3237C75.3898 76.546 75.4115 78.7683 75.4075 80.9926C75.4075 82.9541 74.4705 83.9015 72.5294 83.9035C64.2784 83.9035 56.0268 83.9035 47.7745 83.9035L47.7765 83.8799ZM29.9534 6.1747C29.7207 6.26297 29.3222 6.39439 28.9375 6.55719C24.8798 8.28916 20.8259 10.0329 16.7662 11.757C13.5488 13.1202 10.3294 14.4834 7.09028 15.7917C6.31108 16.1056 6.23217 16.492 6.461 17.2158C7.3921 20.158 8.26796 23.1237 9.17933 26.0757C9.74549 27.9096 10.3629 29.7299 10.9153 31.5678C11.1027 32.1837 11.4617 32.3288 12.0791 32.3229C15.3321 32.2876 18.5889 32.2974 21.8419 32.3013C23.8974 32.3013 24.7713 33.1644 24.7791 35.222C24.789 37.509 24.7634 39.7981 24.7634 42.0871C24.7634 53.8558 24.7686 65.6246 24.7791 77.3934C24.7791 78.8056 24.7634 78.8076 26.16 78.8076L68.665 78.7899C70.6376 78.7899 70.6376 78.7899 70.6376 76.8422C70.6376 63.0152 70.6376 49.1895 70.6376 35.3652C70.6376 33.2075 71.5332 32.3288 73.6815 32.3268C76.9028 32.3268 80.1242 32.3268 83.3475 32.2837C83.5547 32.2716 83.7569 32.2156 83.9407 32.1196C84.1244 32.0235 84.2853 31.8895 84.4128 31.7266C84.7146 31.2461 84.8073 30.6341 84.9829 30.0751C85.7351 27.652 86.486 25.229 87.2356 22.8059C87.8274 20.8758 88.4035 18.9399 89.011 17.0177C89.2083 16.4018 89.0939 16.1095 88.4429 15.8408C85.6595 14.711 82.9037 13.5047 80.138 12.3317C75.7981 10.4938 71.4819 8.64222 67.1401 6.82983C65.1911 6.01582 65.2148 6.06682 64.5145 7.96944C62.173 14.3422 57.3991 17.8042 50.84 18.8869C47.5874 19.4289 44.2496 19.1366 41.1424 18.0376C37.7889 16.8607 34.9601 14.9777 33.0269 12.0042C31.8768 10.2114 31.0266 8.22835 29.9534 6.1747ZM59.4803 6.90436C55.7131 8.15518 51.7734 8.81688 47.8021 8.86582C43.7818 8.89132 39.8976 8.11851 36.0095 6.93967C36.9012 10.2741 41.0556 13.8381 47.5555 14.1186C52.6312 14.3363 58.9753 10.5762 59.4803 6.90436Z" fill="#FFDF05"/>
</svg>
